<svg width="26" height="30" viewBox="0 0 26 30" fill="none" xmlns="http://www.w3.org/2000/svg">
<path d="M23.4468 10.9513C24.4796 10.5268 25.0206 9.55053 24.7255 8.57425C24.4304 7.59797 23.3976 6.96126 22.2664 7.00371C23.0533 6.28211 23.1025 5.17848 22.414 4.37199C21.7255 3.56549 20.4468 3.31081 19.414 3.73528C19.8074 2.80145 19.3156 1.74027 18.2828 1.2309C17.2009 0.721539 15.9222 1.01867 15.2336 1.82516C14.9877 0.763986 14.0041 -6.10352e-05 12.8238 -6.10352e-05C11.5943 -6.10352e-05 10.6107 0.763986 10.414 1.74027C9.72542 0.933775 8.44673 0.636645 7.36476 1.14601C6.28279 1.61293 5.84017 2.6741 6.18443 3.65039C5.15164 3.18347 3.87295 3.3957 3.13524 4.2022C2.39753 5.00869 2.49589 6.11232 3.2336 6.87637C2.10245 6.79147 1.02048 7.42818 0.725395 8.40446C0.430313 9.38074 0.971298 10.357 2.00409 10.8239C0.922117 11.1211 0.233591 12.0125 0.331952 13.0312C0.430313 14.0075 1.31556 14.7715 2.39753 14.8989C1.51228 15.4082 1.11884 16.427 1.51228 17.3183C1.90573 18.2097 2.93852 18.7615 4.02049 18.6767C3.28278 19.3134 3.18442 20.3745 3.77459 21.181C4.41393 21.9875 5.59426 22.3271 6.62705 21.9875C6.13525 22.8789 6.38115 23.9401 7.31558 24.5768C8.29919 25.2135 9.67624 25.1286 10.5123 24.3646C10.5615 25.0437 10.9549 25.638 11.5943 25.9775C11.0041 26.3171 10.6599 26.9114 10.709 27.5481C10.8074 28.5244 11.791 29.2035 12.873 29.1611C14.0041 29.0762 14.791 28.2272 14.7418 27.2934C14.6927 26.8265 14.4468 26.402 14.0533 26.1049C14.6927 25.8078 15.1353 25.3408 15.2828 24.7041C16.1189 25.2559 17.2992 25.2984 18.1845 24.7466C19.1189 24.1523 19.414 23.0487 18.9222 22.1573C19.955 22.4969 21.1353 22.1573 21.7746 21.3084C22.3648 20.5019 22.2664 19.4407 21.5287 18.7615C22.6107 18.8464 23.5943 18.2946 23.9878 17.3608C24.332 16.4694 23.9386 15.4507 23.0533 14.9413C24.1353 14.814 24.9714 14.0499 25.0697 13.0736C25.2173 12.1398 24.4796 11.2484 23.4468 10.9513ZM20.2992 12.6916C20.2009 13.4981 20.6435 14.2197 21.332 14.6017C20.496 14.7291 19.7091 15.2384 19.414 15.96C19.1189 16.7241 19.3156 17.5306 19.9058 18.0824C19.0697 18.0399 18.1845 18.3795 17.6927 19.0162C17.2009 19.6529 17.2009 20.417 17.5451 21.0537C16.8074 20.8415 15.9713 20.9263 15.2828 21.3508C14.791 21.6479 14.4959 22.1149 14.3484 22.5818C13.9549 22.3271 13.414 22.1573 12.873 22.1573C12.1844 22.1573 11.5943 22.412 11.1517 22.794C11.1025 22.1998 10.8074 21.6479 10.2172 21.2659C9.7746 20.9688 9.2828 20.8415 8.74181 20.8415C8.44673 20.8415 8.15165 20.8839 7.90575 20.9688C8.25001 20.3321 8.25001 19.5256 7.75821 18.8889C7.2664 18.2097 6.38115 17.9126 5.54508 17.955C6.13525 17.4032 6.33197 16.5967 6.03689 15.8327C5.74181 15.0686 4.95492 14.6017 4.11885 14.4744C4.80738 14.0499 5.25 13.3283 5.15164 12.5643C5.05328 11.8427 4.56147 11.206 3.82377 10.9088C4.56147 10.6966 5.20082 10.1872 5.44672 9.46564C5.64344 8.74404 5.44672 8.06488 4.90574 7.55552C5.69263 7.59796 6.47951 7.30084 6.97132 6.74902C7.46312 6.19721 7.61066 5.47561 7.36476 4.8389C8.05329 5.13603 8.84017 5.17848 9.57788 4.8389C10.2664 4.54178 10.709 3.94752 10.8566 3.31081C11.2992 3.82018 11.9877 4.15975 12.7746 4.15975C13.5615 4.15975 14.25 3.82018 14.6927 3.35326C14.791 3.98996 15.2336 4.58422 15.9222 4.88135C16.6599 5.22093 17.4468 5.22093 18.1353 4.9238C17.9386 5.51806 18.0369 6.23966 18.5287 6.83392C19.0205 7.42818 19.8074 7.72531 20.5943 7.68286C20.0533 8.19222 19.8074 8.91382 20.0533 9.59298C20.25 10.3146 20.8894 10.8239 21.6271 11.0786C20.8894 11.3333 20.3484 11.97 20.2992 12.6916Z" fill="#9B9B9B"/>
</svg>
