<svg width="28" height="26" viewBox="0 0 28 26" fill="none" xmlns="http://www.w3.org/2000/svg">
<path d="M5.51589 11.3204C5.51589 11.0275 5.51589 10.7345 5.51589 10.4415C5.56216 9.70914 5.93234 9.26971 6.58015 9.0744C7.18169 8.8791 7.73696 9.0744 8.10714 9.61149C8.24596 9.8068 8.38477 10.0509 8.47732 10.2462C9.07886 11.6622 9.91176 12.834 10.9298 13.9082C11.485 14.4941 11.8089 15.3242 12.0403 16.1054C12.3179 17.1308 12.3642 18.2049 12.5956 19.2303C13.012 20.8416 12.9657 22.5017 12.9195 24.1617C12.8732 25.2848 12.2254 25.8218 11.2074 25.5289C9.91176 25.5289 9.12513 25.7242 7.87578 25.3824C7.13542 25.1871 6.71897 24.6988 6.81151 23.9176C6.9966 21.8181 5.79352 19.4744 4.35908 18.1561C2.36936 16.3495 0.981193 14.1523 0.564741 11.3204C0.425924 10.4415 0.333379 9.51384 0.425924 8.63497C0.611014 6.24247 0.888648 3.89881 1.21255 1.50632C1.3051 0.725094 1.67528 0.188004 2.46191 0.0415249C3.10972 -0.104954 3.71126 0.139178 4.03517 0.725094C4.22026 1.1157 4.3128 1.55514 4.3128 1.94575C4.35908 3.60585 4.35908 5.31477 4.35908 6.97487C4.35908 8.53731 4.8218 10.0021 5.51589 11.3204Z" fill="white"/>
<path d="M22.868 11.3204C22.868 11.0275 22.868 10.7345 22.868 10.4415C22.8218 9.70915 22.4516 9.26971 21.8038 9.0744C21.2022 8.8791 20.647 9.0744 20.2768 9.61149C20.138 9.8068 19.9991 10.0509 19.9066 10.2462C19.3051 11.6622 18.4721 12.834 17.4542 13.9082C16.8989 14.4941 16.575 15.3242 16.3436 16.1054C16.066 17.0819 16.066 18.1561 15.7884 19.1815C15.3719 20.7927 15.4182 22.4528 15.4644 24.1129C15.5107 25.2359 16.1585 25.773 17.1765 25.4801C18.4722 25.4801 19.2588 25.6754 20.5081 25.3336C21.2485 25.1383 21.6649 24.65 21.5724 23.8688C21.3873 21.7693 22.5904 19.4256 24.0248 18.1073C26.0145 16.3007 27.4027 14.1035 27.8192 11.2716C27.958 10.3927 28.0505 9.46501 27.958 8.58614C27.7729 6.24247 27.449 3.89881 27.1714 1.50632C27.0788 0.725094 26.7086 0.188004 25.922 0.0415253C25.2279 -0.104954 24.6726 0.139178 24.3025 0.773921C24.1174 1.11571 24.0248 1.60397 24.0248 1.99458C23.9786 3.65468 23.9786 5.3636 23.9786 7.0237C24.0248 8.53731 23.5621 10.0021 22.868 11.3204Z" fill="white"/>
</svg>
