<svg width="20" height="18" viewBox="0 0 20 18" fill="none" xmlns="http://www.w3.org/2000/svg">
<path d="M19.0373 9.49675H0.96885C0.193835 9.49675 -0.201271 8.76486 0.102657 7.90801L2.54927 0.821148C2.71643 0.357021 3.2787 0 3.81057 0H16.1956C16.7275 0 17.2898 0.357021 17.4569 0.821148L19.9035 7.90801C20.1923 8.76486 19.8124 9.49675 19.0373 9.49675Z" fill="#9B9B9B"/>
<path d="M18.7857 13.7175H1.21394C0.546274 13.7175 0 13.2427 0 12.6623C0 12.082 0.546274 11.6071 1.21394 11.6071H18.7857C19.4534 11.6071 19.9997 12.082 19.9997 12.6623C20.0149 13.2427 19.4686 13.7175 18.7857 13.7175Z" fill="#9B9B9B"/>
<path d="M18.7706 17.9383H1.22912C0.546274 17.9383 0 17.4693 0 16.8831C0 16.2969 0.546274 15.8279 1.22912 15.8279H18.7706C19.4534 15.8279 19.9997 16.2969 19.9997 16.8831C20.0149 17.4693 19.4534 17.9383 18.7706 17.9383Z" fill="#9B9B9B"/>
</svg>
