<svg width="81" height="27" viewBox="0 0 81 27" fill="none" xmlns="http://www.w3.org/2000/svg">
<rect y="-0.000732422" width="81" height="27" rx="13.5" fill="white"/>
<path d="M16.1074 14.8176H13.8867V13.6516H16.1074C16.4941 13.6516 16.8066 13.5891 17.0449 13.4641C17.2832 13.3391 17.457 13.1672 17.5664 12.9485C17.6797 12.7258 17.7363 12.4719 17.7363 12.1868C17.7363 11.9172 17.6797 11.6653 17.5664 11.4309C17.457 11.1926 17.2832 11.0012 17.0449 10.8567C16.8066 10.7122 16.4941 10.6399 16.1074 10.6399H14.3379V17.9993H12.8672V9.46802H16.1074C16.7676 9.46802 17.3281 9.58521 17.7891 9.81958C18.2539 10.05 18.6074 10.3704 18.8496 10.7805C19.0918 11.1868 19.2129 11.6516 19.2129 12.175C19.2129 12.7258 19.0918 13.1985 18.8496 13.593C18.6074 13.9875 18.2539 14.2903 17.7891 14.5012C17.3281 14.7122 16.7676 14.8176 16.1074 14.8176ZM21.9023 8.99927V17.9993H20.4844V8.99927H21.9023ZM27.0234 16.7278V13.7043C27.0234 13.4778 26.9824 13.2825 26.9004 13.1184C26.8184 12.9543 26.6934 12.8274 26.5254 12.7375C26.3613 12.6477 26.1543 12.6028 25.9043 12.6028C25.6738 12.6028 25.4746 12.6418 25.3066 12.72C25.1387 12.7981 25.0078 12.9036 24.9141 13.0364C24.8203 13.1692 24.7734 13.3196 24.7734 13.4875H23.3672C23.3672 13.2375 23.4277 12.9954 23.5488 12.761C23.6699 12.5266 23.8457 12.3176 24.0762 12.134C24.3066 11.9504 24.582 11.8059 24.9023 11.7004C25.2227 11.595 25.582 11.5422 25.9805 11.5422C26.457 11.5422 26.8789 11.6223 27.2461 11.7825C27.6172 11.9426 27.9082 12.1848 28.1191 12.509C28.334 12.8293 28.4414 13.2317 28.4414 13.7161V16.5344C28.4414 16.8235 28.4609 17.0833 28.5 17.3137C28.543 17.5403 28.6035 17.7375 28.6816 17.9055V17.9993H27.2344C27.168 17.8469 27.1152 17.6536 27.0762 17.4192C27.041 17.1809 27.0234 16.9504 27.0234 16.7278ZM27.2285 14.1438L27.2402 15.0168H26.2266C25.9648 15.0168 25.7344 15.0422 25.5352 15.093C25.3359 15.1399 25.1699 15.2102 25.0371 15.304C24.9043 15.3977 24.8047 15.511 24.7383 15.6438C24.6719 15.7766 24.6387 15.927 24.6387 16.095C24.6387 16.2629 24.6777 16.4172 24.7559 16.5579C24.834 16.6946 24.9473 16.802 25.0957 16.8801C25.248 16.9583 25.4316 16.9973 25.6465 16.9973C25.9355 16.9973 26.1875 16.9387 26.4023 16.8215C26.6211 16.7004 26.793 16.554 26.918 16.3821C27.043 16.2063 27.1094 16.0403 27.1172 15.884L27.5742 16.511C27.5273 16.6711 27.4473 16.843 27.334 17.0266C27.2207 17.2102 27.0723 17.386 26.8887 17.554C26.709 17.718 26.4922 17.8528 26.2383 17.9583C25.9883 18.0637 25.6992 18.1165 25.3711 18.1165C24.957 18.1165 24.5879 18.0344 24.2637 17.8704C23.9395 17.7024 23.6855 17.4778 23.502 17.1965C23.3184 16.9114 23.2266 16.5891 23.2266 16.2297C23.2266 15.8938 23.2891 15.5969 23.4141 15.3391C23.543 15.0774 23.7305 14.8586 23.9766 14.6829C24.2266 14.5071 24.5312 14.3743 24.8906 14.2844C25.25 14.1907 25.6602 14.1438 26.1211 14.1438H27.2285ZM31.6641 17.3079L33.3867 11.6594H34.8984L32.3555 18.9661C32.2969 19.1223 32.2207 19.2922 32.127 19.4758C32.0332 19.6594 31.9102 19.8333 31.7578 19.9973C31.6094 20.1653 31.4238 20.3 31.2012 20.4016C30.9785 20.5071 30.709 20.5598 30.3926 20.5598C30.2676 20.5598 30.1465 20.5481 30.0293 20.5247C29.916 20.5051 29.8086 20.4836 29.707 20.4602L29.7012 19.3821C29.7402 19.386 29.7871 19.3899 29.8418 19.3938C29.9004 19.3977 29.9473 19.3997 29.9824 19.3997C30.2168 19.3997 30.4121 19.3704 30.5684 19.3118C30.7246 19.2571 30.8516 19.1672 30.9492 19.0422C31.0508 18.9172 31.1367 18.7493 31.207 18.5383L31.6641 17.3079ZM30.6914 11.6594L32.1973 16.4055L32.4492 17.8938L31.4707 18.1458L29.168 11.6594H30.6914ZM42.1582 10.6047L39.6094 17.9993H38.0684L41.2793 9.46802H42.2637L42.1582 10.6047ZM44.291 17.9993L41.7363 10.6047L41.625 9.46802H42.6152L45.8379 17.9993H44.291ZM44.168 14.8352V16.0012H39.5273V14.8352H44.168ZM48.1641 8.99927V17.9993H46.7461V8.99927H48.1641ZM51.2227 8.99927V17.9993H49.8047V8.99927H51.2227Z" fill="black"/>
<path fill-rule="evenodd" clip-rule="evenodd" d="M69.6376 14.8477L63.0049 18.6589C62.67 18.7975 62.268 18.7282 62.067 18.3817C62 18.2431 62 18.1738 62 18.0352V10.4129C62 9.99715 62.268 9.71997 62.67 9.71997C62.804 9.71997 62.871 9.71997 63.0049 9.78926L69.6376 13.6004C69.9726 13.8083 70.1066 14.2241 69.9056 14.5705C69.8386 14.6398 69.7716 14.7784 69.6376 14.8477Z" fill="black"/>
</svg>
