<svg width="39" height="24" viewBox="0 0 39 24" fill="none" xmlns="http://www.w3.org/2000/svg">
<g clip-path="url(#clip0_152_104)">
<path d="M38.2702 10.5321C35.8843 7.6267 33.8392 4.72127 31.4533 1.81583C31.1125 1.45265 31.1125 1.45265 30.7716 1.81583V2.17901C32.4758 4.72127 34.1801 7.26352 35.8843 9.80577C36.2251 10.169 36.2251 10.169 35.8843 10.5321C33.4984 11.2585 31.7941 11.9848 29.7491 13.0744C27.0223 14.5271 23.9547 15.9798 20.8871 17.4325C19.8646 17.7957 19.5237 18.1589 19.5237 19.6116C19.5237 19.9748 19.5237 19.9748 19.8646 19.9748C20.8871 19.2484 21.9097 18.8852 23.273 18.1589C24.6364 19.6116 25.9998 21.0643 27.3632 22.1539C28.3857 22.8802 29.0674 23.6066 30.4308 23.6066C31.4533 23.6066 32.4758 23.6066 33.4984 23.6066C33.4984 23.6066 33.4984 23.6066 33.1575 23.2434C30.7716 21.4275 28.3857 19.2484 25.9998 16.7062C29.7491 14.8903 33.8392 12.7112 37.5885 10.8953C37.9293 10.8953 37.9293 10.8953 38.2702 10.5321Z" fill="white"/>
<path d="M18.1604 17.4325C17.8195 17.4325 18.1604 17.4325 18.1604 17.4325C13.0477 14.8903 8.27586 12.7112 3.50404 10.1689C3.16319 10.1689 3.16319 10.1689 3.50404 9.80577C4.18573 7.98987 5.20826 6.53716 6.23079 5.08444C6.91248 3.99491 7.59417 2.90537 8.61671 1.81583C7.93502 1.45265 7.59417 1.81583 7.59417 2.17901C5.54911 4.35808 3.84488 6.53716 2.14066 9.07941C1.79982 9.44259 1.11813 10.1689 0.777283 10.5321H1.11813C5.20826 12.7112 8.95755 14.5271 13.0477 16.7062C10.6618 19.2484 7.93502 21.4275 5.54911 23.6066C6.57164 23.6066 7.25333 23.6066 7.93502 23.6066C8.95755 23.6066 9.98008 23.2434 11.0026 22.1539C12.7068 21.0643 14.4111 19.6116 15.7744 18.1589C16.797 18.8852 17.8195 19.2484 19.1829 19.9748C19.1829 19.9748 19.5237 20.338 19.5237 19.9748C19.1829 18.5221 19.1829 17.7957 18.1604 17.4325Z" fill="white"/>
<path d="M19.1829 4.72127C16.797 3.26855 14.0702 0.363118 11.0026 -6.10352e-05C10.6618 -6.10352e-05 10.6618 -6.10352e-05 9.98011 0.363118C8.27589 3.26855 7.25335 5.8108 5.54913 8.35306C5.20829 8.71623 5.54913 8.71624 5.54913 8.71624C5.88997 9.07941 6.57166 9.07941 6.91251 9.44259C11.0026 11.6217 15.0928 13.4376 19.1829 15.2535V4.72127Z" fill="white"/>
<path d="M33.8392 8.71624C31.7941 5.8108 30.4308 2.90537 28.3857 -6.10352e-05C28.3857 -6.10352e-05 28.3857 -6.10352e-05 28.0449 -6.10352e-05C24.9773 0.363118 22.5913 2.90537 19.8646 4.35809C19.8646 4.35809 19.8646 4.35809 19.5237 4.35809V15.2535H19.8646C23.273 13.4376 26.6815 11.9848 29.7491 10.5321C31.4533 9.80577 32.4758 9.44259 33.8392 8.71624Z" fill="white"/>
</g>
<defs>
<clipPath id="clip0_152_104">
<rect width="37.4929" height="23.6066" fill="white" transform="translate(0.777283 -6.10352e-05)"/>
</clipPath>
</defs>
</svg>
