<svg width="19" height="19" viewBox="0 0 19 19" fill="none" xmlns="http://www.w3.org/2000/svg">
<path fill-rule="evenodd" clip-rule="evenodd" d="M11.9211 11.9908C9.91699 13.9949 6.71042 13.9949 4.70632 11.9908C2.70221 9.98667 2.70221 6.78011 4.70632 4.776C6.71042 2.7719 9.91699 2.7719 11.9211 4.776C13.9252 6.61978 13.9252 9.98667 11.9211 11.9908ZM14.0054 2.69173C10.879 -0.434673 5.74845 -0.434672 2.54189 2.7719C-0.344025 5.65781 -0.424189 10.5478 2.30139 13.5941C4.78648 16.3998 8.71453 16.961 11.8409 15.4378C12.4021 15.1973 13.0434 15.3577 13.4442 15.7585L16.1698 18.4841C16.8111 19.1254 17.8532 19.2056 18.4946 18.5642C19.1359 17.9229 19.0557 16.8808 18.4144 16.2395L15.6888 13.5139C15.288 13.1131 15.1277 12.4718 15.3682 11.9106C16.9714 8.86437 16.4103 5.09666 14.0054 2.69173Z" fill="white"/>
</svg>
