<svg width="12" height="11" viewBox="0 0 12 11" fill="none" xmlns="http://www.w3.org/2000/svg">
<path d="M6.25135 0.266151L7.40853 3.59883C7.47025 3.72226 7.57825 3.79941 7.71711 3.81483L11.2504 3.84569C11.6361 3.90741 11.7904 4.37028 11.5127 4.648L8.68914 6.79264C8.59657 6.88522 8.55028 7.00865 8.56571 7.14751L9.59946 10.4493C9.66117 10.8351 9.26002 11.1282 8.90515 10.9431L6.01992 8.96814C5.89648 8.90642 5.75762 8.90642 5.64962 8.96814L2.73353 10.9431C2.37866 11.1282 1.9775 10.8351 2.03922 10.4493L3.08839 7.14751C3.10382 7.02408 3.07296 6.88522 2.96496 6.79264L0.141444 4.648C-0.136279 4.37028 0.0180115 3.90741 0.403738 3.84569L3.93699 3.81483C4.06042 3.79941 4.18386 3.72226 4.24557 3.59883L5.40275 0.266151C5.57247 -0.0887171 6.08163 -0.0887171 6.25135 0.266151Z" fill="white"/>
</svg>
